The final 15 years of the Ceausescu regime were the worst in Romania's history. Nonetheless, the propaganda machine of that time referred without fail to that period as "the golden age"... Tales from the Golden Age adapts for screen the most popular urban myths of the period. Comic, bizarre, surprising myths abounded, myths that drew on the often surreal events of everyday life under the communist regime. Humor is what kept Romanians alive, and Tales from the Golden Age aims to re-capture that mood, portraying the survival of a nation having to face every day the twisted logic of a dictatorship.

-- Tales of Autority --

General
Complete name                            : 1 tales of authority.avi
Format                                   : AVI
Format/Info                              : Audio Video Interleave
File size                                : 974 MiB
Duration                                 : 1h 16mn
Overall bit rate                         : 1 769 Kbps
Writing application                      : VirtualDubMod 1.5.10.2 (build 2540/release)
Writing library                          : VirtualDubMod build 2540/release

Video
ID                                       : 0
Format                                   : MPEG-4 Visual
Format profile                           : Advanced Simple@L5
Format settings, BVOP                    : 2
Format settings, QPel                    : No
Format settings, GMC                     : No warppoints
Format settings, Matrix                  : Default (H.263)
Muxing mode                              : Packed bitstream
Codec ID                                 : XVID
Codec ID/Hint                            : XviD
Duration                                 : 1h 16mn
Bit rate                                 : 1 599 Kbps
Width                                    : 672 pixels
Height                                   : 368 pixels
Display aspect ratio                     : 1.85:1
Frame rate                               : 25.000 fps
Color space                              : YUV
Chroma subsampling                       : 4:2:0
Bit depth                                : 8 bits
Scan type                                : Progressive
Compression mode                         : Lossy
Bits/(Pixel*Frame)                       : 0.259
Stream size                              : 880 MiB (90%)
Writing library                          : XviD 1.2.1 (UTC 2008-12-04)

Audio
ID                                       : 1
Format                                   : MPEG Audio
Format version                           : Version 1
Format profile                           : Layer 3
Mode                                     : Joint stereo
Mode extension                           : MS Stereo
Codec ID                                 : 55
Codec ID/Hint                            : MP3
Duration                                 : 1h 16mn
Bit rate mode                            : Constant
Bit rate                                 : 160 Kbps
Channel(s)                               : 2 channels
Sampling rate                            : 44.1 KHz
Compression mode                         : Lossy
Stream size                              : 88.1 MiB (9%)
Alignment                                : Split accross interleaves
Interleave, duration                     : 40 ms (1.00 video frame)
Interleave, preload duration             : 500 ms
Writing library                          : LAME3.97 (beta)

-- Tales of Love --

General
Complete name                            : 2 tales of love.avi
Format                                   : AVI
Format/Info                              : Audio Video Interleave
File size                                : 893 MiB
Duration                                 : 1h 10mn
Overall bit rate                         : 1 771 Kbps
Writing application                      : VirtualDubMod 1.5.10.2 (build 2540/release)
Writing library                          : VirtualDubMod build 2540/release

Video
ID                                       : 0
Format                                   : MPEG-4 Visual
Format profile                           : Advanced Simple@L5
Format settings, BVOP                    : 2
Format settings, QPel                    : No
Format settings, GMC                     : No warppoints
Format settings, Matrix                  : Default (H.263)
Muxing mode                              : Packed bitstream
Codec ID                                 : XVID
Codec ID/Hint                            : XviD
Duration                                 : 1h 10mn
Bit rate                                 : 1 601 Kbps
Width                                    : 672 pixels
Height                                   : 368 pixels
Display aspect ratio                     : 1.85:1
Frame rate                               : 25.000 fps
Color space                              : YUV
Chroma subsampling                       : 4:2:0
Bit depth                                : 8 bits
Scan type                                : Progressive
Compression mode                         : Lossy
Bits/(Pixel*Frame)                       : 0.259
Stream size                              : 808 MiB (90%)
Writing library                          : XviD 1.2.1 (UTC 2008-12-04)

Audio
ID                                       : 1
Format                                   : MPEG Audio
Format version                           : Version 1
Format profile                           : Layer 3
Mode                                     : Joint stereo
Mode extension                           : MS Stereo
Codec ID                                 : 55
Codec ID/Hint                            : MP3
Duration                                 : 1h 10mn
Bit rate mode                            : Constant
Bit rate                                 : 160 Kbps
Channel(s)                               : 2 channels
Sampling rate                            : 44.1 KHz
Compression mode                         : Lossy
Stream size                              : 80.7 MiB (9%)
Alignment                                : Split accross interleaves
Interleave, duration                     : 40 ms (1.00 video frame)
Interleave, preload duration             : 500 ms
Writing library                          : LAME3.97 (beta)

